<svg xmlns="http://www.w3.org/2000/svg" width="30" height="30" viewBox="0 0 30 30">
    <path fill="#000" fill-opacity=".87" fill-rule="nonzero" d="M13.379 28.476a22.589 22.589 0 0 1-4.78-12.762H1.446c.343 6.622 5.433 11.988 11.932 12.762zm3.242 0c6.5-.774 11.589-6.14 11.932-12.762h-7.15a22.572 22.572 0 0 1-4.782 12.762zm3.353-12.762h-9.946c.254 4.594 2 8.98 4.972 12.49a21.131 21.131 0 0 0 4.974-12.49zm-6.595-14.19c-6.5.774-11.589 6.14-11.932 12.762h7.15a22.572 22.572 0 0 1 4.782-12.762zm3.242 0a22.589 22.589 0 0 1 4.78 12.762h7.152C28.21 7.664 23.12 2.298 16.621 1.524zm3.351 12.762c-.254-4.594-2-8.98-4.972-12.49a21.131 21.131 0 0 0-4.974 12.49h9.946zM15 30C6.716 30 0 23.284 0 15 0 6.716 6.716 0 15 0c8.284 0 15 6.716 15 15 0 8.284-6.716 15-15 15z"/>
</svg>
