<svg xmlns="http://www.w3.org/2000/svg" width="25" height="30" viewBox="0 0 25 30">
    <path fill="#000" fill-opacity=".87" fill-rule="evenodd" d="M12.224 30l-.398-.294C11.33 29.412.001 21.765.001 12.059-.099 5.392 5.467 0 12.224 0c6.757 0 12.321 5.392 12.321 12.059 0 9.706-11.328 17.353-11.824 17.647l-.497.294zm0-28.53c5.962 0 10.83 4.706 10.83 10.589 0 7.941-8.843 14.706-10.93 16.176C10.137 26.765 1.392 20 1.392 12.06c0-5.883 4.87-10.588 10.832-10.588zm0 16.016c3.072 0 5.5-2.396 5.5-5.427 0-2.96-2.428-5.428-5.5-5.428-3 0-5.501 2.397-5.501 5.428 0 2.96 2.429 5.427 5.5 5.427zm-.007-9.378c2.192 0 3.997 1.78 3.997 3.944 0 2.163-1.805 3.944-3.997 3.944-2.193 0-3.998-1.781-3.998-3.944 0-2.163 1.805-3.944 3.998-3.944z"/>
</svg>
