<svg xmlns="http://www.w3.org/2000/svg" width="29" height="30" viewBox="0 0 29 30">
    <path fill="#000" fill-opacity=".87" fill-rule="evenodd" d="M27.883 28.501h-.754V8.251c0-1.144-.854-2.323-1.946-2.686L18.086 3.21V.75a.748.748 0 0 0-.304-.602.76.76 0 0 0-.666-.117L3.488 4.101c-1.111.331-1.98 1.495-1.98 2.649V28.5H.753a.752.752 0 0 0-.754.75c0 .414.338.75.754.75h27.129a.752.752 0 0 0 .753-.75.752.752 0 0 0-.753-.75v.001zM24.707 6.988c.48.16.915.76.915 1.263v20.25h-7.536V4.792l6.621 2.196zM3.014 6.751c0-.493.433-1.07.908-1.212l12.657-3.78v26.742H3.014V6.751zm3.768 2.25v3.75h1.884v-3.75H6.782zm0 6v3.75h1.884v-3.75H6.782zm0 6v3.75h1.884v-3.75H6.782zm4.145-12v3.75h1.884v-3.75h-1.884zm0 6v3.75h1.884v-3.75h-1.884zm0 6v3.75h1.884v-3.75h-1.884zm10.174-12h1.507v3.75H21.1v-3.75zm0 6h1.507v3.75H21.1v-3.75zm0 6h1.507v3.75H21.1v-3.75z"/>
</svg>
